<?xml version="1.0" encoding="utf-8"?>
<!-- Generator: Adobe Illustrator 27.5.0, SVG Export Plug-In . SVG Version: 6.00 Build 0)  -->
<svg version="1.1" id="Layer_1" xmlns="http://www.w3.org/2000/svg" xmlns:xlink="http://www.w3.org/1999/xlink" x="0px" y="0px"
	 viewBox="0 0 48 48" style="enable-background:new 0 0 48 48;" xml:space="preserve">
<style type="text/css">
	.st0{fill:#7F7F8A;}
</style>
<path class="st0" d="M24,23.9c-2.2,0-4-0.7-5.4-2.1c-1.4-1.4-2.1-3.2-2.1-5.4s0.7-4,2.1-5.4s3.2-2.1,5.4-2.1s4,0.7,5.4,2.1
	c1.4,1.4,2.1,3.2,2.1,5.4s-0.7,4-2.1,5.4C28,23.2,26.2,23.9,24,23.9z M8,40v-4.7C8,34,8.3,33,8.9,32c0.6-0.9,1.5-1.6,2.5-2
	c2.2-1,4.4-1.8,6.4-2.2S21.9,27,24,27s4.1,0.3,6.1,0.8s4.2,1.3,6.4,2.2c1,0.5,1.9,1.2,2.5,2c0.6,0.9,0.9,2,0.9,3.2V40H8z M11,37h26
	v-1.7c0-0.5-0.2-1-0.5-1.5c-0.3-0.5-0.7-0.8-1.2-1.1c-2.1-1-4.1-1.7-5.9-2.1C27.7,30.2,25.9,30,24,30s-3.8,0.2-5.5,0.6
	c-1.8,0.4-3.8,1.1-5.9,2.1c-0.5,0.2-0.9,0.6-1.2,1.1c-0.3,0.5-0.4,1-0.4,1.5V37z M24,20.9c1.3,0,2.4-0.4,3.2-1.3s1.3-1.9,1.3-3.2
	c0-1.3-0.4-2.4-1.3-3.2s-1.9-1.3-3.2-1.3c-1.3,0-2.4,0.4-3.2,1.3c-0.8,0.9-1.3,1.9-1.3,3.2c0,1.3,0.4,2.4,1.3,3.2
	C21.6,20.5,22.7,20.9,24,20.9z"/>
</svg>
