<?xml version="1.0" encoding="UTF-8"?>
<svg id="Stars" xmlns="http://www.w3.org/2000/svg" viewBox="0 0 596 150">
  <defs>
    <style>
      .cls-1 {
        fill: #dbdbdb;
      }
    </style>
  </defs>
  <g id="_Grid_Repeat_" data-name="&amp;lt;Grid Repeat&amp;gt;">
    <g>
      <path class="cls-1"
        d="m95.07,125.69c-.97,0-1.92-.23-2.79-.7l-25.78-13.55c-.14-.08-.31-.12-.47-.12s-.32.04-.47.12l-25.78,13.55c-.88.46-1.82.7-2.79.7-1.77,0-3.45-.79-4.6-2.15-1.13-1.35-1.61-3.12-1.31-4.87l4.92-28.7c.06-.33-.05-.66-.29-.89l-20.85-20.33c-1.65-1.61-2.23-3.97-1.52-6.16.71-2.19,2.57-3.75,4.85-4.09l28.82-4.19c.33-.05.61-.25.76-.55l12.89-26.11c1.02-2.06,3.08-3.35,5.38-3.35s4.37,1.28,5.38,3.35l12.89,26.11c.15.3.43.5.76.55l28.82,4.19c2.28.33,4.14,1.9,4.85,4.09.71,2.19.13,4.55-1.52,6.15l-20.85,20.33c-.24.23-.34.56-.29.89l4.92,28.7c.3,1.75-.18,3.53-1.31,4.87-1.15,1.37-2.83,2.15-4.6,2.15Z" />
      <path
        d="m66.03,26.81c1.25,0,2.5.65,3.14,1.95l12.89,26.11c.51,1.03,1.5,1.75,2.64,1.92l28.82,4.19c2.87.42,4.02,3.95,1.94,5.98l-20.85,20.33c-.83.81-1.2,1.96-1.01,3.1l4.92,28.7c.39,2.26-1.41,4.1-3.45,4.1-.54,0-1.09-.13-1.63-.41l-25.78-13.55c-.51-.27-1.07-.4-1.63-.4s-1.12.13-1.63.4l-25.78,13.55c-.54.28-1.09.41-1.63.41-2.04,0-3.84-1.84-3.45-4.1l4.92-28.7c.19-1.14-.18-2.3-1.01-3.1l-20.85-20.33c-2.08-2.03-.93-5.56,1.94-5.98l28.82-4.19c1.14-.17,2.13-.88,2.64-1.92l12.89-26.11c.64-1.3,1.89-1.95,3.14-1.95m0-5c-3.26,0-6.18,1.82-7.63,4.74l-12.54,25.41-28.04,4.07c-3.23.47-5.86,2.69-6.87,5.79-1.01,3.1-.18,6.44,2.15,8.72l20.29,19.78-4.79,27.93c-.43,2.48.26,5,1.87,6.91,1.63,1.93,4,3.04,6.51,3.04,1.36,0,2.73-.34,3.96-.98l25.08-13.19,25.08,13.19c1.23.64,2.59.98,3.96.98,2.51,0,4.88-1.11,6.51-3.04,1.61-1.91,2.29-4.43,1.87-6.91l-4.79-27.93,20.29-19.78c2.34-2.28,3.16-5.62,2.15-8.72-1.01-3.1-3.64-5.32-6.87-5.79l-28.04-4.07-12.54-25.41c-1.44-2.92-4.37-4.74-7.63-4.74h0Z" />
    </g>
  </g>
  <g id="_Grid_Repeat_-2" data-name="&amp;lt;Grid Repeat&amp;gt;">
    <g>
      <path class="cls-1"
        d="m211.05,125.69c-.97,0-1.91-.23-2.79-.7l-25.78-13.55c-.14-.08-.31-.12-.47-.12s-.32.04-.47.12l-25.78,13.55c-.88.46-1.82.7-2.79.7-1.77,0-3.45-.79-4.6-2.15-1.13-1.35-1.61-3.12-1.31-4.87l4.92-28.7c.06-.33-.05-.66-.29-.89l-20.85-20.33c-1.65-1.61-2.23-3.96-1.52-6.15.71-2.19,2.57-3.76,4.85-4.09l28.82-4.19c.33-.05.61-.25.76-.55l12.89-26.11c1.02-2.06,3.08-3.35,5.38-3.35s4.37,1.28,5.38,3.35l12.89,26.11c.15.3.43.5.76.55l28.82,4.19c2.28.33,4.14,1.9,4.85,4.09s.13,4.55-1.52,6.16l-20.85,20.33c-.24.23-.34.56-.29.89l4.92,28.7c.3,1.75-.18,3.53-1.31,4.87-1.15,1.37-2.83,2.15-4.6,2.15Z" />
      <path
        d="m182.02,26.81c1.25,0,2.5.65,3.14,1.95l12.89,26.11c.51,1.03,1.5,1.75,2.64,1.92l28.82,4.19c2.87.42,4.02,3.95,1.94,5.98l-20.85,20.33c-.83.81-1.2,1.96-1.01,3.1l4.92,28.7c.39,2.26-1.41,4.1-3.45,4.1-.54,0-1.09-.13-1.63-.41l-25.78-13.55c-.51-.27-1.07-.4-1.63-.4s-1.12.13-1.63.4l-25.78,13.55c-.54.28-1.09.41-1.63.41-2.04,0-3.84-1.84-3.45-4.1l4.92-28.7c.2-1.14-.18-2.3-1.01-3.1l-20.85-20.33c-2.08-2.03-.93-5.56,1.94-5.98l28.82-4.19c1.14-.17,2.13-.88,2.64-1.92l12.89-26.11c.64-1.3,1.89-1.95,3.14-1.95m0-5c-3.26,0-6.18,1.82-7.63,4.74l-12.54,25.41-28.04,4.07c-3.23.47-5.86,2.69-6.86,5.79-1.01,3.1-.18,6.44,2.15,8.72l20.29,19.78-4.79,27.93c-.43,2.48.26,5,1.87,6.91,1.63,1.93,4,3.04,6.51,3.04,1.36,0,2.73-.34,3.96-.98l25.08-13.19,25.08,13.19c1.23.64,2.59.98,3.96.98,2.51,0,4.88-1.11,6.51-3.04,1.61-1.91,2.29-4.43,1.87-6.91l-4.79-27.93,20.29-19.78c2.34-2.28,3.16-5.62,2.15-8.72-1.01-3.1-3.64-5.32-6.87-5.79l-28.04-4.07-12.54-25.41c-1.44-2.92-4.37-4.74-7.63-4.74h0Z" />
    </g>
  </g>
  <g id="_Grid_Repeat_-3" data-name="&amp;lt;Grid Repeat&amp;gt;">
    <g>
      <path class="cls-1"
        d="m327.04,125.69c-.97,0-1.92-.23-2.79-.7l-25.78-13.55c-.14-.08-.31-.12-.47-.12s-.32.04-.47.12l-25.78,13.55c-.88.46-1.82.7-2.79.7-1.77,0-3.45-.78-4.6-2.15-1.14-1.35-1.61-3.12-1.31-4.87l4.92-28.7c.06-.33-.05-.66-.29-.89l-20.85-20.33c-1.65-1.61-2.23-3.97-1.52-6.16.71-2.19,2.57-3.75,4.85-4.09l28.82-4.19c.33-.05.61-.25.76-.55l12.89-26.11c1.02-2.06,3.08-3.35,5.38-3.35s4.37,1.28,5.38,3.35l12.89,26.11c.15.3.43.5.76.55l28.82,4.19c2.28.33,4.14,1.9,4.85,4.09.71,2.19.13,4.55-1.52,6.16l-20.85,20.33c-.24.23-.34.56-.29.89l4.92,28.7c.3,1.75-.18,3.53-1.31,4.87-1.15,1.37-2.83,2.15-4.6,2.15Z" />
      <path
        d="m298,26.81c1.25,0,2.5.65,3.14,1.95l12.89,26.11c.51,1.03,1.5,1.75,2.64,1.92l28.82,4.19c2.87.42,4.02,3.95,1.94,5.98l-20.85,20.33c-.83.81-1.2,1.96-1.01,3.1l4.92,28.7c.39,2.26-1.41,4.1-3.45,4.1-.54,0-1.09-.13-1.63-.41l-25.78-13.55c-.51-.27-1.07-.4-1.63-.4s-1.12.13-1.63.4l-25.78,13.55c-.54.28-1.09.41-1.63.41-2.04,0-3.84-1.84-3.45-4.1l4.92-28.7c.2-1.14-.18-2.3-1.01-3.1l-20.85-20.33c-2.08-2.03-.93-5.56,1.94-5.98l28.82-4.19c1.14-.17,2.13-.88,2.64-1.92l12.89-26.11c.64-1.3,1.89-1.95,3.14-1.95m0-5c-3.26,0-6.18,1.82-7.63,4.74l-12.54,25.41-28.04,4.07c-3.23.47-5.86,2.69-6.87,5.79-1.01,3.1-.18,6.44,2.15,8.72l20.29,19.78-4.79,27.93c-.43,2.48.26,5,1.87,6.91,1.63,1.93,4,3.04,6.51,3.04,1.36,0,2.73-.34,3.96-.98l25.08-13.19,25.08,13.19c1.23.64,2.59.98,3.96.98,2.51,0,4.88-1.11,6.51-3.04,1.61-1.91,2.29-4.43,1.87-6.91l-4.79-27.93,20.29-19.78c2.34-2.28,3.16-5.62,2.15-8.72-1.01-3.1-3.64-5.32-6.87-5.79l-28.04-4.07-12.54-25.41c-1.44-2.92-4.37-4.74-7.63-4.74h0Z" />
    </g>
  </g>
  <g id="_Grid_Repeat_-4" data-name="&amp;lt;Grid Repeat&amp;gt;">
    <g>
      <path class="cls-1"
        d="m443.02,125.69c-.97,0-1.92-.23-2.79-.7l-25.78-13.55c-.14-.08-.31-.12-.47-.12s-.32.04-.47.12l-25.78,13.55c-.88.46-1.82.7-2.79.7-1.77,0-3.45-.79-4.6-2.15-1.13-1.35-1.61-3.12-1.31-4.87l4.92-28.7c.06-.33-.05-.66-.29-.89l-20.85-20.33c-1.65-1.61-2.23-3.97-1.52-6.15s2.57-3.76,4.85-4.09l28.82-4.19c.33-.05.61-.25.76-.55l12.89-26.11c1.02-2.06,3.08-3.35,5.38-3.35s4.37,1.28,5.38,3.35l12.89,26.11c.15.3.43.5.76.55l28.82,4.19c2.28.33,4.14,1.9,4.85,4.09.71,2.19.13,4.55-1.52,6.15l-20.85,20.33c-.24.23-.34.56-.29.89l4.92,28.7c.3,1.75-.18,3.53-1.31,4.87-1.15,1.37-2.83,2.15-4.6,2.15Z" />
      <path
        d="m413.98,26.81c1.25,0,2.5.65,3.14,1.95l12.89,26.11c.51,1.03,1.5,1.75,2.64,1.92l28.82,4.19c2.87.42,4.02,3.95,1.94,5.98l-20.85,20.33c-.83.81-1.2,1.96-1.01,3.1l4.92,28.7c.39,2.26-1.41,4.1-3.45,4.1-.54,0-1.09-.13-1.63-.41l-25.78-13.55c-.51-.27-1.07-.4-1.63-.4s-1.12.13-1.63.4l-25.78,13.55c-.54.28-1.09.41-1.63.41-2.04,0-3.84-1.84-3.45-4.1l4.92-28.7c.19-1.14-.18-2.3-1.01-3.1l-20.85-20.33c-2.08-2.03-.93-5.56,1.94-5.98l28.82-4.19c1.14-.17,2.13-.88,2.64-1.92l12.89-26.11c.64-1.3,1.89-1.95,3.14-1.95m0-5c-3.26,0-6.18,1.82-7.63,4.74l-12.54,25.41-28.04,4.07c-3.23.47-5.86,2.69-6.87,5.79-1.01,3.1-.18,6.44,2.15,8.72l20.29,19.78-4.79,27.93c-.43,2.48.26,5,1.87,6.91,1.63,1.93,4,3.04,6.51,3.04,1.36,0,2.73-.34,3.96-.98l25.08-13.19,25.08,13.19c1.23.64,2.59.98,3.96.98,2.51,0,4.88-1.11,6.51-3.04,1.61-1.91,2.29-4.43,1.87-6.91l-4.79-27.93,20.29-19.78c2.33-2.28,3.16-5.62,2.15-8.72-1.01-3.1-3.64-5.32-6.86-5.79l-28.04-4.07-12.54-25.41c-1.44-2.92-4.37-4.74-7.63-4.74h0Z" />
    </g>
  </g>
  <g id="_Grid_Repeat_-5" data-name="&amp;lt;Grid Repeat&amp;gt;">
    <g>
      <path class="cls-1"
        d="m559.01,125.69c-.97,0-1.91-.23-2.79-.7l-25.78-13.55c-.14-.08-.31-.12-.47-.12s-.32.04-.47.12l-25.78,13.55c-.88.46-1.82.7-2.79.7-1.77,0-3.45-.78-4.6-2.15-1.14-1.35-1.61-3.12-1.31-4.87l4.92-28.7c.06-.33-.05-.66-.29-.89l-20.85-20.33c-1.65-1.61-2.23-3.96-1.52-6.15.71-2.19,2.57-3.76,4.85-4.09l28.82-4.19c.33-.05.61-.25.75-.55l12.89-26.12c1.02-2.06,3.08-3.35,5.38-3.35s4.37,1.28,5.38,3.35l12.89,26.12c.15.3.43.5.76.55l28.82,4.19c2.28.33,4.14,1.9,4.85,4.09.71,2.19.13,4.55-1.52,6.16l-20.85,20.33c-.24.23-.34.56-.29.89l4.92,28.7c.3,1.75-.18,3.53-1.31,4.87-1.15,1.37-2.83,2.15-4.6,2.15Z" />
      <path
        d="m529.97,26.81c1.25,0,2.5.65,3.14,1.95l12.89,26.11c.51,1.03,1.5,1.75,2.64,1.92l28.82,4.19c2.87.42,4.02,3.95,1.94,5.98l-20.85,20.33c-.83.81-1.2,1.96-1.01,3.1l4.92,28.7c.39,2.26-1.41,4.1-3.45,4.1-.54,0-1.09-.13-1.63-.41l-25.78-13.55c-.51-.27-1.07-.4-1.63-.4s-1.12.13-1.63.4l-25.78,13.55c-.54.28-1.09.41-1.63.41-2.04,0-3.84-1.84-3.45-4.1l4.92-28.7c.19-1.14-.18-2.3-1.01-3.1l-20.85-20.33c-2.08-2.03-.93-5.56,1.94-5.98l28.82-4.19c1.14-.17,2.13-.88,2.64-1.92l12.89-26.11c.64-1.3,1.89-1.95,3.14-1.95m0-5c-3.26,0-6.18,1.82-7.63,4.74l-12.54,25.41-28.04,4.07c-3.23.47-5.86,2.69-6.87,5.79-1.01,3.1-.18,6.44,2.15,8.72l20.29,19.78-4.79,27.93c-.42,2.48.25,5,1.87,6.91,1.63,1.93,4,3.04,6.52,3.04,1.36,0,2.73-.34,3.96-.98l25.08-13.19,25.08,13.19c1.23.64,2.59.98,3.96.98,2.51,0,4.88-1.11,6.51-3.04,1.61-1.91,2.29-4.43,1.87-6.91l-4.79-27.93,20.29-19.78c2.33-2.28,3.16-5.62,2.15-8.72-1.01-3.1-3.64-5.32-6.86-5.79l-28.04-4.07-12.54-25.41c-1.44-2.92-4.37-4.74-7.63-4.74h0Z" />
    </g>
  </g>
</svg>