<?xml version="1.0" encoding="UTF-8"?>
<svg id="Stars" xmlns="http://www.w3.org/2000/svg" viewBox="0 0 596 150">
  <defs>
    <style>
      .cls-1 {
        fill: #fbc83b;
      }
    </style>
  </defs>
  <g id="_Grid_Repeat_" data-name="&amp;lt;Grid Repeat&amp;gt;">
    <path class="cls-1"
      d="m69.17,28.76l12.89,26.11c.51,1.03,1.5,1.75,2.64,1.92l28.82,4.19c2.87.42,4.02,3.95,1.94,5.98l-20.85,20.33c-.83.81-1.2,1.96-1.01,3.1l4.92,28.7c.49,2.86-2.51,5.05-5.08,3.69l-25.78-13.55c-1.02-.54-2.24-.54-3.26,0l-25.78,13.55c-2.57,1.35-5.58-.83-5.08-3.69l4.92-28.7c.19-1.14-.18-2.3-1.01-3.1l-20.85-20.33c-2.08-2.03-.93-5.56,1.94-5.98l28.82-4.19c1.14-.17,2.13-.88,2.64-1.92l12.89-26.11c1.29-2.6,5-2.6,6.28,0Z" />
  </g>
  <g id="_Grid_Repeat_-2" data-name="&amp;lt;Grid Repeat&amp;gt;">
    <path class="cls-1"
      d="m185.16,28.76l12.89,26.11c.51,1.03,1.5,1.75,2.64,1.92l28.82,4.19c2.87.42,4.02,3.95,1.94,5.98l-20.85,20.33c-.83.81-1.2,1.96-1.01,3.1l4.92,28.7c.49,2.86-2.51,5.05-5.08,3.69l-25.78-13.55c-1.02-.54-2.24-.54-3.26,0l-25.78,13.55c-2.57,1.35-5.58-.83-5.08-3.69l4.92-28.7c.19-1.14-.18-2.3-1.01-3.1l-20.85-20.33c-2.08-2.03-.93-5.56,1.94-5.98l28.82-4.19c1.14-.17,2.13-.88,2.64-1.92l12.89-26.11c1.29-2.6,5-2.6,6.28,0Z" />
  </g>
  <g id="_Grid_Repeat_-3" data-name="&amp;lt;Grid Repeat&amp;gt;">
    <path class="cls-1"
      d="m301.14,28.76l12.89,26.11c.51,1.03,1.5,1.75,2.64,1.92l28.82,4.19c2.87.42,4.02,3.95,1.94,5.98l-20.85,20.33c-.83.81-1.2,1.96-1.01,3.1l4.92,28.7c.49,2.86-2.51,5.05-5.08,3.69l-25.78-13.55c-1.02-.54-2.24-.54-3.26,0l-25.78,13.55c-2.57,1.35-5.58-.83-5.08-3.69l4.92-28.7c.19-1.14-.18-2.3-1.01-3.1l-20.85-20.33c-2.08-2.03-.93-5.56,1.94-5.98l28.82-4.19c1.14-.17,2.13-.88,2.64-1.92l12.89-26.11c1.29-2.6,5-2.6,6.28,0Z" />
  </g>
  <g id="_Grid_Repeat_-4" data-name="&amp;lt;Grid Repeat&amp;gt;">
    <path class="cls-1"
      d="m417.13,28.76l12.89,26.11c.51,1.03,1.5,1.75,2.64,1.92l28.82,4.19c2.87.42,4.02,3.95,1.94,5.98l-20.85,20.33c-.83.81-1.2,1.96-1.01,3.1l4.92,28.7c.49,2.86-2.51,5.05-5.08,3.69l-25.78-13.55c-1.02-.54-2.24-.54-3.26,0l-25.78,13.55c-2.57,1.35-5.58-.83-5.08-3.69l4.92-28.7c.19-1.14-.18-2.3-1.01-3.1l-20.85-20.33c-2.08-2.03-.93-5.56,1.94-5.98l28.82-4.19c1.14-.17,2.13-.88,2.64-1.92l12.89-26.11c1.29-2.6,5-2.6,6.28,0Z" />
  </g>
  <g id="_Grid_Repeat_-5" data-name="&amp;lt;Grid Repeat&amp;gt;">
    <path class="cls-1"
      d="m533.11,28.76l12.89,26.11c.51,1.03,1.5,1.75,2.64,1.92l28.82,4.19c2.87.42,4.02,3.95,1.94,5.98l-20.85,20.33c-.83.81-1.2,1.96-1.01,3.1l4.92,28.7c.49,2.86-2.51,5.05-5.08,3.69l-25.78-13.55c-1.02-.54-2.24-.54-3.26,0l-25.78,13.55c-2.57,1.35-5.58-.83-5.08-3.69l4.92-28.7c.19-1.14-.18-2.3-1.01-3.1l-20.85-20.33c-2.08-2.03-.93-5.56,1.94-5.98l28.82-4.19c1.14-.17,2.13-.88,2.64-1.92l12.89-26.11c1.29-2.6,5-2.6,6.28,0Z" />
  </g>
</svg>